<svg xmlns="http://www.w3.org/2000/svg" xmlns:xlink="http://www.w3.org/1999/xlink" width="212" height="180" viewBox="0 0 212 180">
  <defs>
    <polygon id="performance-a" points="14.672 10.096 .378 10.096 .378 .056 14.672 .056 14.672 10.096"/>
  </defs>
  <g fill="none" fill-rule="evenodd">
    <g transform="translate(0 124.938)">
      <polyline stroke="#337FC5" stroke-width="2" points="2.541 42.726 35.983 20.234 83.914 35.777 134.518 2.447 177.936 42.726 210.485 17.133"/>
      <ellipse cx="2.564" cy="42.749" fill="#126EE7" rx="2.564" ry="2.583"/>
      <ellipse cx="36.237" cy="20.348" fill="#126EE7" rx="2.564" ry="2.583"/>
      <ellipse cx="83.87" cy="35.711" fill="#126EE7" rx="2.564" ry="2.583"/>
      <ellipse cx="135.159" cy="2.823" fill="#126EE7" rx="2.564" ry="2.583"/>
      <ellipse cx="177.88" cy="42.109" fill="#126EE7" rx="2.564" ry="2.583"/>
      <ellipse cx="209.005" cy="18.436" fill="#126EE7" rx="2.564" ry="2.583"/>
    </g>
    <g transform="matrix(-1 0 0 1 211.531 52.94)">
      <g fill="#BCBCBC" transform="translate(34.713 105.445)">
        <path d="M30.5419163 2.07845296L23.3357926 2.07845296C21.946266 2.07845296 20.8195935 2.85421255 20.8195935 3.81134691 20.8195935 4.76738866 21.946266 5.54314824 23.3357926 5.54314824L23.6706314 5.54314824C25.0601579 5.54314824 26.1868305 6.31781521 26.1868305 7.27494957 26.1868305 8.23208394 25.0601579 9.00784352 23.6706314 9.00784352L8.1797012 9.00784352C6.79126537 9.00784352 5.66459278 9.78251049 5.66459278 10.7396449 5.66459278 11.6956866 6.79126537 12.4714462 8.1797012 12.4714462L26.7965207 12.4714462 64.847079 12.4714462C66.2366056 12.4714462 67.3632781 11.6956866 67.3632781 10.7396449 67.3632781 9.78251049 66.2366056 9.00784352 64.847079 9.00784352L60.5476179 9.00784352C59.1591821 9.00784352 58.0325095 8.23208394 58.0325095 7.27494957 58.0325095 6.31781521 59.1591821 5.54314824 60.5476179 5.54314824L77.433528 5.54314824C78.8230545 5.54314824 79.9497271 4.76738866 79.9497271 3.81134691 79.9497271 2.85421255 78.8230545 2.07845296 77.433528 2.07845296L76.1727017 2.07845296 30.5419163 2.07845296zM75.2337352 12.9355908C74.0688888 12.9355908 73.1243598 12.1041076 73.1243598 11.0792309 73.1243598 10.0543541 74.0688888 9.22287097 75.2337352 9.22287097L81.6971057 9.22287097C82.8619521 9.22287097 83.8064811 10.0543541 83.8064811 11.0792309 83.8064811 12.1041076 82.8619521 12.9355908 81.6971057 12.9355908L75.2337352 12.9355908zM2.68747224 3.8561443C1.51280972 3.8561443.559555273 3.0170128.559555273 1.9833951.559555273.948684775 1.51280972.110645898 2.68747224.110645898L9.20755818.110645898C10.3822207.110645898 11.3343845.948684775 11.3343845 1.9833951 11.3343845 3.01810542 10.3822207 3.8561443 9.20755818 3.8561443L2.68747224 3.8561443z"/>
      </g>
      <path fill="#003171" d="M46.3005452,87.4216706 C45.3302689,87.9472131 44.0979675,89.1665615 43.5610402,90.1318323 L32.8930395,109.32395 C32.3566721,110.28922 31.0151937,111.078936 29.9127851,111.078936 L7.20059254,111.078936 C6.09762407,111.078936 5.1956534,111.983071 5.1956534,113.08744 L5.1956534,118.885795 C5.1956534,119.990724 6.09762407,120.894298 7.20059254,120.894298 L37.0384094,120.894298 C38.1413779,120.894298 39.4918144,120.110191 40.0399393,119.15109 L52.8063796,96.8068392 C53.3545045,95.848299 54.5694495,94.5880066 55.5072526,94.0063763 L62.5197807,89.4615833 C63.4475059,88.8648093 65.0487698,88.7032765 66.076714,89.1026215 L80.5978259,94.737761 C81.6257702,95.1365451 82.1862125,96.3222408 81.8430046,97.3716432 L76.6288191,113.303939 C76.2856111,114.353902 75.8315464,116.099915 75.6199108,117.184091 L75.2806221,118.923374 C75.0689865,120.00755 75.7985133,120.894298 76.9009219,120.894298 L85.1384728,120.894298 C86.2414413,120.894298 87.4591857,120.047373 87.8443848,119.012553 L96.909442,94.6682121 C97.2946412,93.6333925 96.7969056,92.3944134 95.8031142,91.9159846 L67.0145172,78.0538892 C66.0207258,77.5754604 64.4133032,77.6136001 63.4435867,78.1385818 L46.3005452,87.4216706 Z"/>
      <polygon fill="#DDB585" points="37.713 40.427 25.462 44.458 17.551 20.332 29.802 16.301"/>
      <path fill="#126EE7" d="M23.3448038,38.6894083 L18.5029401,42.0243879 C17.212411,42.9128183 16.8188136,44.6448091 17.5976101,46.0060595 L42.6775457,89.817909 C42.9479689,90.2901681 43.5453635,90.4606749 44.024063,90.2015494 L66.9742056,77.7741795 C67.4713813,77.5049581 67.6483041,76.8778967 67.3655635,76.3876895 L42.0364802,32.5029259 C41.280079,31.1927154 39.6709768,30.648103 38.2757496,31.2302942 L35.3699596,32.442912 L35.5927928,40.0276628 L23.3448038,38.6894083 Z"/>
      <path fill="#003171" d="M70.5541502,48.5049946 L21.2497795,48.5049946 C19.0158484,48.5049946 17.2051885,46.6911157 17.2051885,44.4532132 C17.2051885,42.2153107 19.0158484,40.4014318 21.2497795,40.4014318 L70.5541502,40.4014318 L70.5541502,48.5049946 Z"/>
      <path fill="#003171" d="M39.0054445,31.9190521 C38.6040087,31.5398987 38.707587,31.097927 39.2349963,30.9363942 L59.5744069,24.7056024 C60.1018162,24.5440696 60.8442204,24.739816 61.2238207,25.1402828 L76.9895513,41.7540448 C77.3691517,42.1545115 77.229181,42.4820642 76.6776968,42.4820642 L67.9939196,42.4820642 C67.4424354,42.4820642 66.6742766,42.1601203 66.2868379,41.7675058 L58.7883319,34.1614417 C58.4008932,33.7682663 57.6528902,33.5803722 57.1260408,33.7430268 L45.8864001,37.2176649 C45.3595507,37.3808804 44.6003501,37.203643 44.1989143,36.8250505 L39.0054445,31.9190521 Z"/>
      <path fill="#DDB585" d="M81.0319028,42.882587 L84.6968935,43.8770234 C84.6968935,43.8770234 86.299837,45.0240186 84.1622058,46.3241334 C84.1622058,46.3241334 84.7730375,49.1543229 82.3297104,48.4661258 C82.3297104,48.4661258 81.5822673,51.5251534 79.0644758,49.5979772 L78.0544478,45.0240186 L79.0644758,43.5707841 L81.0319028,42.882587 Z"/>
      <polygon fill="#5C6662" points="78.381 43.873 89.746 46.034 89.045 49.734 77.68 47.573"/>
      <path fill="#DED6AB" d="M89.3198431,43.5876105 C88.7756374,43.49787 88.2471083,43.8691711 88.1452097,44.4121009 L86.6284881,52.4808892 C86.5265894,53.023819 86.8899532,53.5291699 87.4363985,53.6043275 L139.083317,60.6966276 C139.629763,60.7717852 140.137016,60.3853404 140.210361,59.8373628 L141.112332,53.1242161 C141.186236,52.5767993 140.801037,52.0557438 140.256831,51.9660034 L89.3198431,43.5876105 Z"/>
      <path fill="#D0C99A" d="M86.442943,53.4680342 C86.442943,53.4680342 121.697063,64.0130981 139.157558,60.8329209"/>
      <path fill="#D4D4D6" d="M69.1000794,49.2461946 L73.8294067,49.6662921 L74.1507792,41.8880385 C74.1507792,40.894163 74.8797462,41.1998414 74.8797462,41.1998414 L85.4217734,41.8880385 C85.7274692,41.1998414 85.1020805,40.434804 84.6967256,40.434804 C80.9365548,40.434804 69.2798017,39.604144 69.2798017,39.604144 C68.4058251,39.5570302 67.6706994,40.2542014 67.6706994,41.1314143 L67.6706994,47.7194852 C67.6706994,48.5265884 68.2960882,49.1945939 69.1000794,49.2461946"/>
      <path fill="#E6C596" d="M74.1283279,41.1999536 L85.4222773,41.8881507 C85.7274132,41.1999536 85.1020245,40.4349162 84.6966696,40.4349162 C82.6659758,40.4349162 77.6852613,40.1516729 74.1283279,39.9290044"/>
      <path fill="#E6C596" d="M74.1283279,41.1999536 L73.8293507,49.6664043 C83.5992999,52.2666339 81.4135187,43.3413851 81.4135187,43.3413851 C81.4135187,43.3413851 83.7689443,43.4501954 84.5438216,43.3413851 C85.6451105,43.1871437 85.4222773,41.8881507 85.4222773,41.8881507"/>
      <g transform="translate(74.464 116.102)">
        <mask id="performance-b" fill="#fff">
          <use xlink:href="#performance-a"/>
        </mask>
        <path fill="#F05C58" d="M0.378256601,3.13715793 L4.37581748,3.08667892 C4.37581748,3.08667892 4.79404969,2.83260127 4.91106513,2.27172345 C5.06279328,1.54370403 4.50571022,-0.589314329 7.10132538,0.246954506 C7.10132538,0.246954506 9.84754893,1.12192391 10.0793403,5.04806867 L13.0455976,5.04806867 C13.0455976,5.04806867 15.5488322,6.55009948 14.3439651,8.96467851 L12.9996873,10.0959691 L0.808806226,10.0959691 L0.378256601,9.0914369" mask="url(#performance-b)"/>
      </g>
      <polygon fill="#203759" points="88.808 125.076 74.842 125.076 75.274 126.198 87.51 126.198"/>
      <polygon fill="#F05C58" points="80.662 119.5 83.165 119.5 83.165 118.943 80.662 118.943"/>
      <polygon fill="#203759" points="80.662 120.335 83.165 120.335 83.165 119.778 80.662 119.778"/>
      <path fill="#F05C58" d="M6.73577811,111.011182 L6.78616753,115.01585 C6.78616753,115.01585 7.0397943,115.434826 7.59967677,115.552049 C8.32640423,115.704047 10.5603353,115.145974 9.72611042,117.746203 C9.72611042,117.746203 8.95795166,120.497309 5.03877433,120.729512 L5.03877433,123.701043 C5.03877433,123.701043 3.53940905,126.208728 1.12911499,125.001719 L-0.000167964743,123.655051 L-0.000167964743,111.442497 L0.897323645,111.011182"/>
      <polygon fill="#203759" points="1.12 125.001 1.12 111.011 0 111.443 0 123.701"/>
      <polygon fill="#F05C58" points="6.476 119.348 7.032 119.348 7.032 116.84 6.476 116.84"/>
      <polygon fill="#203759" points="5.641 119.348 6.197 119.348 6.197 116.84 5.641 116.84"/>
      <path fill="#E5C093" d="M35.1259628,20.5276235 C36.7613795,25.4425959 34.0857012,30.8051488 29.1788911,32.4434729 L28.6738771,32.6122971 C23.7670671,34.2506212 18.4145906,31.5701861 16.7791739,26.6546529 L14.9858704,21.2668605 C13.3504536,16.3518881 16.026132,10.9893353 20.932942,9.35101116 L21.437956,9.18218693 C26.344766,7.54330193 31.6972425,10.2242979 33.3326592,15.1392703 L35.1259628,20.5276235 Z"/>
      <path fill="#A6673D" d="M12.0266675,17.6343914 L15.2975009,26.2937841 C15.2975009,26.2937841 17.4474497,27.8384416 18.0314071,25.3812359 L14.3630571,15.9960673 L12.0266675,17.6343914 Z"/>
      <path fill="#126EE7" d="M36.4520445,7.83882846 C36.6060121,8.30211354 36.354065,8.80802534 35.8916021,8.96226674 L21.138139,13.8895784 C20.675676,14.0438198 20.170662,13.7908639 20.0166944,13.3275788 L19.9444695,13.1116409 C19.7905018,12.6483558 20.0430088,12.142444 20.5054718,11.9882026 L35.2589349,7.06089092 C35.7213978,6.90664952 36.2258519,7.15904454 36.3803795,7.6228905 L36.4520445,7.83882846 Z"/>
      <path fill="#126EE7" d="M10.3696393,16.8673349 C8.85123806,12.3051547 9.63395376,7.60107235 12.0621641,4.31993708 C13.3504536,2.57897232 15.101766,1.23847432 17.2181218,0.531768264 C23.32476,-1.5075835 30.1586855,2.49988855 32.4821978,9.48225657 L10.7884314,18.1259447 L10.3696393,16.8673349 Z"/>
      <path fill="#237BED" d="M20.6129692,14.0647406 C20.6129692,14.0647406 21.5563712,6.81427294 13.4503927,2.76922208 C13.4503927,2.76922208 6.83986026,8.36678275 10.7887114,18.1260569 L20.6129692,14.0647406 Z"/>
      <polygon fill="#FFF" points="19.993 16.3 14.676 18.075 14.395 17.233 19.713 15.457"/>
      <polygon fill="#FFF" points="22.253 18.993 17.009 20.744 16.728 19.901 21.972 18.15"/>
      <polygon fill="#FFF" points="23.514 21.88 18.727 23.479 18.447 22.636 23.234 21.038"/>
      <path fill="#DD9E5F" d="M33.9060349,24.7598954 C33.9894574,25.0111687 33.852846,25.2848771 33.6020187,25.3690087 L30.5187459,26.3982195 C30.2679185,26.4823512 29.9946959,26.345497 29.9112734,26.0942238 L29.8166533,25.8109805 C29.7332308,25.5602681 29.8698421,25.2859988 30.1206695,25.202428 L33.2039423,24.1726563 C33.4547696,24.0890855 33.7285521,24.2259397 33.8119746,24.477213 L33.9060349,24.7598954 Z"/>
      <polygon fill="#FFF" points="36.202 24.991 23.628 29.19 23.348 28.348 35.922 24.148"/>
      <polygon fill="#FFF" points="34.899 32.542 34.058 32.823 29.969 20.536 30.81 20.255"/>
      <path fill="#DD9E5F" d="M32.095207,17.0953317 C32.480966,18.2541053 32.0784105,19.4414836 31.2016346,19.7342619 C30.3248586,20.0270401 29.2918754,19.3186514 28.9061164,18.1604387 L27.9246424,15.2113431 C27.5394433,14.0531304 27.9414389,12.8651912 28.8182149,12.5724129 C29.6955507,12.2796347 30.7285339,12.9880234 31.113733,14.1462361 L32.095207,17.0953317 Z"/>
      <path fill="#232523" d="M31.7914148,15.0123997 L35.0857632,13.9125183 C35.3169947,13.8351172 35.3668243,13.6287141 35.19662,13.4537203 L32.380971,10.5562254 C32.2107667,10.3812315 31.8821157,10.301026 31.6508843,10.3784272 L19.8065705,14.3342984 C19.5747791,14.4111387 19.4488056,14.6640946 19.5260693,14.8957371 C19.6033331,15.1273797 19.8552802,15.2541381 20.0865117,15.1767369 L22.0819328,14.4745179 C22.3131643,14.3971168 22.395467,14.5339709 22.395467,14.7779528 L22.395467,18.1028365 C22.395467,18.3468184 22.6916449,18.4836726 22.9234362,18.4062714 L26.7614306,17.1426137 C26.992662,17.0652126 27.2703638,16.8116958 27.3459479,16.5794924 L28.4136438,13.3275227"/>
      <path fill="#FFF" d="M28.0781622,34.5080081 L34.2452677,32.4484647 C36.3319497,31.7512936 37.464032,29.4836645 36.7680981,27.3932729 L34.1047372,19.3889855 L24.1164338,22.7245259 L17.9370109,13.7409458 L13.3571722,15.4336751 L28.0781622,34.5080081 Z M34.5257688,33.2909032 L27.7612687,35.5501191 L11.9165946,15.0191864 L18.2762997,12.6691083 L24.46804,21.6706365 L34.6651795,18.2655472 L37.6090416,27.1122731 C38.4595031,29.6670716 37.0760335,32.4389298 34.5257688,33.2909032 L34.5257688,33.2909032 Z"/>
      <path fill="#333" d="M13.1272845 15.1004015C13.1804733 15.2596908 13.0942514 15.4318803 12.9352448 15.4846028 12.7767981 15.5378862 12.6049141 15.4520719 12.5517253 15.2927826 12.4990964 15.1334933 12.5847584 14.9613038 12.743765 14.9080204 12.9027716 14.8552979 13.0740957 14.9411122 13.1272845 15.1004015M18.2804988 13.146864C18.3336876 13.3061533 18.2474657 13.4783428 18.0884591 13.5310653 17.9300124 13.5843487 17.7581284 13.4979735 17.7049396 13.3392451 17.6523107 13.1799558 17.7379727 13.0077663 17.8969793 12.9544829 18.0559859 12.9017604 18.22731 12.9875747 18.2804988 13.146864"/>
      <path fill="#000" d="M87.0047851 98.0600647L82.2261881 98.0600647C81.9490463 98.0600647 81.7250933 97.8357135 81.7250933 97.558079 81.7250933 97.2804445 81.9490463 97.0555325 82.2261881 97.0555325L87.0047851 97.0555325C87.2819269 97.0555325 87.5058799 97.2804445 87.5058799 97.558079 87.5058799 97.8357135 87.2819269 98.0600647 87.0047851 98.0600647M30.5771416 116.315684L29.7569138 111.599824C29.7093238 111.326115 29.8912856 111.066429 30.1645083 111.018754 30.437171 110.97108 30.6969565 111.153926 30.7445465 111.427073L31.5647743 116.143495C31.6123643 116.416642 31.4298427 116.676329 31.1571799 116.724003 30.8839572 116.771678 30.6247316 116.589393 30.5771416 116.315684M16.3776822 116.315684L15.5574544 111.599824C15.5098644 111.326115 15.6918262 111.066429 15.9650488 111.018754 16.2377116 110.97108 16.4974971 111.153926 16.5450871 111.427073L17.3653149 116.143495C17.4129049 116.416642 17.2303832 116.676329 16.9577205 116.724003 16.6844978 116.771678 16.4252722 116.589393 16.3776822 116.315684M83.7049497 108.384648L79.0568054 108.384648C78.7796636 108.384648 78.5557106 108.160296 78.5557106 107.882662 78.5557106 107.605027 78.7796636 107.380115 79.0568054 107.380115L83.7049497 107.380115C83.9820916 107.380115 84.2060445 107.605027 84.2060445 107.882662 84.2060445 108.160296 83.9820916 108.384648 83.7049497 108.384648"/>
      <path fill="#EEE" d="M86.3564412,122.896913 L78.8058661,120.187312 C78.2846155,120.000539 78.0136324,119.42564 78.2000732,118.903462 L92.8493982,77.9324592 C93.2228399,76.8881047 94.3711588,76.3446141 95.41366,76.7187196 L101.076311,78.7507799 C102.118813,79.1248854 102.661339,80.274685 102.287897,81.3190395 L87.638572,122.290043 C87.4515713,122.81222 86.8776918,123.083685 86.3564412,122.896913"/>
      <path stroke="#7F7F7F" stroke-linecap="round" stroke-width="1.255" d="M97.3996751 80.0982889L85.3985942 113.6629M99.2873189 80.7756049L87.286238 114.340217M95.5120873 79.4209728L83.5110064 112.985584"/>
      <polygon fill="#EFEFEF" points="98.175 92.822 88.737 89.436 91.103 82.817 100.541 86.204"/>
      <path stroke="#7F7F7F" stroke-linecap="round" stroke-width="1.791" d="M92.5387195 85.9993966L96.8643715 87.5513456M91.8626054 87.8903962L96.1882574 89.4423452"/>
      <path fill="#EFEFEF" d="M7.65034614,123.411798 L7.27242547,115.386198 C7.24611099,114.83205 7.67330132,114.362035 8.22646521,114.335673 L51.6207164,112.283421 C52.7270442,112.23126 53.6659671,113.087159 53.7185961,114.195454 L54.0018966,120.214234 C54.0539657,121.322528 53.199585,122.263121 52.0938171,122.315282 L8.69900602,124.367534 C8.14584213,124.393895 7.67666061,123.965946 7.65034614,123.411798"/>
      <path fill="#7F7F7F" d="M15.8060422 119.356596C15.6201612 119.356596 15.4645139 119.209646 15.4555558 119.021191 15.4465976 118.827127 15.5960863 118.662229 15.7898056 118.653255L51.3401033 116.972304C51.5310233 116.931921 51.6984281 117.112523 51.7079461 117.306587 51.7163444 117.501212 51.5674156 117.665549 51.3731364 117.674523L15.8233986 119.355474C15.8172398 119.356596 15.811641 119.356596 15.8060422 119.356596M15.9004944 121.363248C15.7146134 121.363248 15.5589661 121.216298 15.5500079 121.027843 15.5410498 120.83378 15.6905384 120.668881 15.8842578 120.659907L51.4345555 118.977835C51.6271551 118.934086 51.7928803 119.118054 51.8023983 119.312679 51.8107965 119.506743 51.6618678 119.671641 51.4675886 119.680054L15.9178507 121.362126C15.911692 121.363248 15.9060932 121.363248 15.9004944 121.363248M15.711534 117.349943C15.5256531 117.349943 15.3700057 117.202993 15.3610476 117.014538 15.3520895 116.820474 15.5015781 116.655576 15.6952974 116.646602L51.2455952 114.965651C51.4348355 114.929194 51.60392 115.105871 51.613438 115.299935 51.6218362 115.494559 51.4729075 115.658896 51.2786282 115.66787L15.7288904 117.348821C15.7227317 117.349943 15.7171329 117.349943 15.711534 117.349943"/>
      <polygon fill="#EFEFEF" points="39.91 122.892 39.437 112.86 46.447 112.528 46.92 122.56"/>
      <path fill="#7F7F7F" d="M44.2738826 120.170654C44.0079384 120.170654 43.786225 119.960885 43.7733477 119.692225L43.5566731 115.094148C43.5437958 114.817636 43.757671 114.582067 44.0342529 114.569728 44.3214726 114.547853 44.5454256 114.770522 44.5583029 115.047035L44.7749774 119.645111C44.7884146 119.921624 44.5745395 120.157193 44.2979575 120.169532 44.2901192 120.170654 44.281721 120.170654 44.2738826 120.170654M42.271239 120.265779C42.0052948 120.265779 41.7835813 120.05601 41.770704 119.78735L41.5540295 115.189273C41.5411522 114.912761 41.7550273 114.677192 42.0316093 114.664853 42.3205086 114.634004 42.5422221 114.865647 42.5556593 115.14216L42.7723338 119.740236C42.785771 120.016749 42.5718959 120.252317 42.2953139 120.264657 42.2874756 120.265779 42.2790773 120.265779 42.271239 120.265779"/>
    </g>
    <path fill="#FFC8F5" d="M52.9399986,26.4699993 C52.9399986,41.0888505 41.0888505,52.9399986 26.4699993,52.9399986 C11.8511481,52.9399986 0,41.0888505 0,26.4699993 C0,11.8511481 11.8511481,0 26.4699993,0 C41.0888505,0 52.9399986,11.8511481 52.9399986,26.4699993" transform="translate(122.82)"/>
    <g transform="translate(69.88 32.823)">
      <path fill="#AD81FE" d="M26.4699993,52.9399986 C11.8511481,52.9399986 0,41.0888505 0,26.4699993 C0,11.8511481 11.8511481,0 26.4699993,0 C41.0888505,0 52.9399986,11.8511481 52.9399986,26.4699993 C52.9399986,41.0888505 41.0888505,52.9399986 26.4699993,52.9399986 Z"/>
      <path fill="#FFF" d="M38.5179497,20.0902374 C38.5179497,21.2697004 37.500413,22.2745762 36.3196173,22.2745762 C35.1408207,22.2745762 34.1492721,21.2697004 34.1492721,20.0902374 C34.1492721,18.9114408 35.1408207,18.0798194 36.3196173,18.0798194 C37.500413,18.0798194 38.5179497,18.9114408 38.5179497,20.0902374 L38.5179497,20.0902374 Z M22.0327888,27.153688 L22.1947151,27.153688 C22.1947151,27.8233831 22.0327888,28.4937446 22.0327888,29.1634396 L22.0327888,29.4992867 L21.5243537,29.4992867 L22.0327888,27.153688 Z M18.1472246,35.5438679 L13.1075192,35.5438679 L12.7863321,38.223981 L17.4761968,38.0633874 L18.1472246,35.5438679 Z M13.2687791,33.5334499 L18.4950663,33.5334499 L19.0035014,31.523032 L13.4553609,31.523032 L13.2687791,33.5334499 Z M40.0192661,16.9003564 C37.3391531,14.0456562 33.2909962,12.7055997 28.2526236,12.7055997 C23.2129182,12.7055997 19.1647613,14.0456562 16.4846483,16.9003564 C12.5977513,20.9345197 12.7863321,26.1348186 12.7863321,26.3094058 C12.9462593,26.8185073 13.2687791,27.153688 13.6166208,27.153688 L19.6745292,27.153688 L19.9970491,27.153688 L19.514602,29.4992867 L12.4378242,29.6732075 L11.6055364,29.6732075 L11.4189547,30.5041625 L10.7479269,39.2428504 L10.5879997,40.234399 L11.7667963,40.234399 L18.3344727,39.9125455 L19.1647613,39.9125455 L19.3260212,39.2428504 L21.0145858,31.523032 L22.1947151,31.523032 C22.8644102,35.7177887 25.3839297,39.0822569 31.9522724,39.0822569 C35.8118485,39.0822569 39.1889775,36.8839244 40.6902939,33.5334499 L42.88796,34.0292242 C42.88796,34.2038114 42.88796,34.2038114 43.0485536,34.2038114 C43.2091471,34.2038114 43.3963952,34.0292242 43.5576551,34.0292242 C43.718915,33.8679643 43.9061631,33.5334499 43.9061631,33.37219 L43.9061631,26.8185073 C43.9061631,26.4706657 43.9061631,20.9345197 40.0192661,16.9003564 L40.0192661,16.9003564 Z"/>
    </g>
    <path fill="#DC70C8" fill-rule="nonzero" d="M161.117457,23.724325 C161.036024,23.4735631 160.77049,23.241636 160.331472,23.215138 L152.50818,22.6921941 L149.593303,15.413358 C149.432468,15.0040695 149.129726,14.8231996 148.86613,14.8231996 C148.602535,14.8231996 148.299792,15.0040695 148.138958,15.413358 L145.224081,22.6921941 L137.400789,23.215138 C136.961771,23.241636 136.696236,23.4735631 136.614803,23.724325 C136.53337,23.9749947 136.611849,24.3188229 136.951338,24.5982064 L142.973133,29.619631 L141.052994,37.2215216 C140.942478,37.6471521 141.081154,37.9715915 141.294246,38.126425 C141.507431,38.2812585 141.858738,38.3127423 142.229433,38.0761988 L148.866315,33.9011418 L155.502827,38.0763834 C155.873523,38.3129269 156.224737,38.2814432 156.438014,38.1266097 C156.651291,37.9716839 156.789783,37.6472444 156.679267,37.2217062 L154.759128,29.6198157 L160.780831,24.598391 C161.120504,24.3188229 161.198983,23.9749023 161.117457,23.724325 Z"/>
  </g>
</svg>
